
<svg width="145" height="85" xmlns="http://www.w3.org/2000/svg" xmlns:xlink="http://www.w3.org/1999/xlink"><defs><path id="a" d="M0 0h145v85H0z"/></defs><g fill="none" fill-rule="evenodd"><mask id="b" fill="#fff"><use xlink:href="#a"/></mask><use fill-opacity="0" fill="#FFF" xlink:href="#a"/><path d="M36 49h20v5a4 4 0 0 1-4 4H40a4 4 0 0 1-4-4v-5zM63 49h20v5a4 4 0 0 1-4 4H67a4 4 0 0 1-4-4v-5zM90 49h20v5a4 4 0 0 1-4 4H94a4 4 0 0 1-4-4v-5z" fill="#8E959B" mask="url(#b)"/><path d="M40 28h12a4 4 0 0 1 4 4v17H36V32a4 4 0 0 1 4-4zM67 28h12a4 4 0 0 1 4 4v17H63V32a4 4 0 0 1 4-4zM94 28h12a4 4 0 0 1 4 4v17H90V32a4 4 0 0 1 4-4z" fill="#D7D9DA" mask="url(#b)"/></g></svg>
