
<svg width="145px" height="85px" viewBox="0 0 145 85" version="1.1" xmlns="http://www.w3.org/2000/svg" xmlns:xlink="http://www.w3.org/1999/xlink">
    <defs>
        <rect id="path-1" x="0" y="0" width="145" height="85"></rect>
    </defs>
    <g id="Page-1" stroke="none" stroke-width="1" fill="none" fill-rule="evenodd">
        <g id="Artboard" transform="translate(-294.000000, -706.000000)">
            <g id="email" transform="translate(294.000000, 706.000000)">
                <mask id="mask-2" fill="white">
                    <use xlink:href="#path-1"></use>
                </mask>
                <use id="Rectangle-4" fill-opacity="0.0118006993" fill="#FFFFFF" xlink:href="#path-1"></use>
                <path d="M43,37 L84,37 C85.1045695,37 86,37.8954305 86,39 L86,46 C86,47.1045695 85.1045695,48 84,48 L43,48 C41.8954305,48 41,47.1045695 41,46 L41,39 C41,37.8954305 41.8954305,37 43,37 Z" id="Rectangle-2" fill="#D7D9DA" mask="url(#mask-2)"></path>
                <path d="M82,37 L102,37 C103.104569,37 104,37.8954305 104,39 L104,46 C104,47.1045695 103.104569,48 102,48 L82,48 L82,37 Z" id="Rectangle-2-Copy" fill="#8E959B" mask="url(#mask-2)"></path>
            </g>
        </g>
    </g>
</svg>
