
<svg width="145" height="85" xmlns="http://www.w3.org/2000/svg" xmlns:xlink="http://www.w3.org/1999/xlink"><defs><path id="a" d="M0 0h145v85H0z"/></defs><g fill="none" fill-rule="evenodd"><mask id="b" fill="#fff"><use xlink:href="#a"/></mask><use fill-opacity="0" fill="#FFF" xlink:href="#a"/><g mask="url(#b)"><g transform="translate(38 23)"><rect fill="#8E959B" width="23" height="3" rx="1.5"/><rect fill="#8E959B" x="5" y="12" width="13" height="8" rx="4"/><rect fill="#898E92" opacity=".3" y="6" width="23" height="3" rx="1.5"/><rect fill="#898E92" opacity=".3" x="6" y="25" width="16" height="3" rx="1.5"/><rect fill="#898E92" opacity=".3" y="25" width="3" height="3" rx="1.5"/><rect fill="#898E92" opacity=".3" x="6" y="31" width="16" height="3" rx="1.5"/><rect fill="#898E92" opacity=".3" y="31" width="3" height="3" rx="1.5"/><rect fill="#898E92" opacity=".3" x="6" y="37" width="16" height="3" rx="1.5"/><rect fill="#898E92" opacity=".3" y="37" width="3" height="3" rx="1.5"/></g></g><g mask="url(#b)"><g transform="translate(84 23)"><rect fill="#8E959B" width="23" height="3" rx="1.5"/><rect fill="#8E959B" x="5" y="12" width="13" height="8" rx="4"/><rect fill="#898E92" opacity=".3" y="6" width="23" height="3" rx="1.5"/><rect fill="#898E92" opacity=".3" x="6" y="25" width="16" height="3" rx="1.5"/><rect fill="#898E92" opacity=".3" y="25" width="3" height="3" rx="1.5"/><rect fill="#898E92" opacity=".3" x="6" y="31" width="16" height="3" rx="1.5"/><rect fill="#898E92" opacity=".3" y="31" width="3" height="3" rx="1.5"/><rect fill="#898E92" opacity=".3" x="6" y="37" width="16" height="3" rx="1.5"/><rect fill="#898E92" opacity=".3" y="37" width="3" height="3" rx="1.5"/></g></g></g></svg>
