
<svg width="145" height="85" fill="none" xmlns="http://www.w3.org/2000/svg">
    <mask id="a" style="mask-type:alpha" maskUnits="userSpaceOnUse" x="0" y="0" width="145" height="85">
        <path d="M0 0h145v85H0V0Z" fill="#fff"/>
    </mask>
    <g mask="url(#a)">
        <path opacity=".3"
              d="M55.6 63H30.4a2.4 2.4 0 0 0-2.4 2.5c0 1.4 1 2.5 2.4 2.5h25.2c1.3 0 2.4-1.1 2.4-2.5S57 63 55.6 63Z"
              fill="#898E92"/>
        <path d="M31 53.3h.2c.6 0 1 0 1.4-.2.4 0 .7-.3 1-.5l.6-1 .1-1.2v-2.9l-.4-.7-.4-.4a1.2 1.2 0 0 0-1.2 0l-.4.5-.3.6a3 3 0 0 0 0 1.5l.3.6.5.4.6.2a1.4 1.4 0 0 0 1-.5 1.5 1.5 0 0 0 .5-1l.6.3c0 .3 0 .6-.2 1a2.9 2.9 0 0 1-1.4 1.4l-1 .2c-.5 0-.9 0-1.2-.2l-1-.7-.5-1.1a4.4 4.4 0 0 1 0-2.7l.7-1.1 1-.8 1.4-.3a3 3 0 0 1 2.4 1.1c.4.4.6.9.8 1.4l.2 1.6v.7c0 .6 0 1.2-.2 1.8-.1.6-.3 1-.6 1.5a4.3 4.3 0 0 1-2.5 1.9 6 6 0 0 1-1.8.2h-.1v-1.6Zm13.4-1.2c0 .6-.1 1.2-.4 1.6-.3.4-.7.7-1.2 1-.5.2-1 .3-1.7.3s-1.3-.1-1.8-.3c-.5-.3-.9-.6-1.2-1-.3-.4-.4-1-.4-1.6a2.5 2.5 0 0 1 1-2l1-.6 1.4-.2c.6 0 1.2.2 1.7.4s.9.5 1.2 1c.3.4.4.9.4 1.4Zm-2-.1-.1-.8-.5-.5-.7-.2c-.3 0-.6 0-.8.2l-.5.5-.1.8.1.8.5.5.8.1.7-.1.5-.5.1-.8Zm1.8-4.5c0 .5-.1 1-.4 1.4-.3.4-.6.7-1.1.9-.5.2-1 .3-1.6.3-.6 0-1.2-.1-1.7-.3-.5-.2-.8-.5-1.1-1-.3-.3-.4-.8-.4-1.3 0-.6.1-1 .4-1.5l1.1-1a4 4 0 0 1 1.7-.3 4 4 0 0 1 1.6.4 2.5 2.5 0 0 1 1.5 2.4Zm-2 .1-.1-.7a1 1 0 0 0-.4-.4c-.2-.2-.4-.2-.6-.2l-.7.1a1 1 0 0 0-.4.5l-.1.7.1.7.4.5.7.2c.2 0 .4 0 .6-.2l.4-.5.1-.7Zm3.5-.3v-.5c0-.4.1-.7.3-1 .1-.3.4-.6.7-.8.3-.2.7-.3 1.2-.3s.9.1 1.2.3l.7.8c.2.3.2.6.2 1v.5c0 .4 0 .7-.2 1-.2.4-.4.6-.7.8-.3.2-.7.3-1.2.3s-.9-.1-1.2-.3c-.3-.2-.6-.4-.7-.8-.2-.3-.3-.6-.3-1Zm1.3-.5v.5l.1.5.3.3.5.2c.2 0 .4 0 .5-.2l.2-.3.1-.5v-1l-.3-.3a.8.8 0 0 0-.5-.1h-.5l-.3.4v.5Zm3.5 6.1v-.5c0-.4 0-.7.2-1l.8-.8c.3-.2.7-.2 1.2-.2.4 0 .8 0 1.1.2.4.2.6.5.8.8l.2 1v.5c0 .4 0 .7-.2 1-.2.4-.4.6-.7.8l-1.2.3c-.5 0-.9-.1-1.2-.3l-.8-.7-.2-1Zm1.3-.5v.5l.1.5.3.3.5.2c.2 0 .4 0 .5-.2l.2-.3.1-.5v-1a.8.8 0 0 0-.8-.4h-.5l-.3.4-.1.5Zm1.3-6L48.3 54l-1-.5 4.9-7.8 1 .5Z"
              fill="#8E959B"/>
        <path opacity=".5" d="M42.5 36.7a6.9 6.9 0 1 0 0-13.7 6.9 6.9 0 0 0 0 13.7Z" fill="#8E959B"/>
        <path opacity=".3"
              d="M114.6 63H89.4a2.4 2.4 0 0 0-2.4 2.5c0 1.4 1 2.5 2.4 2.5h25.2c1.3 0 2.4-1.1 2.4-2.5s-1-2.5-2.4-2.5Z"
              fill="#898E92"/>
        <path d="m92 50.1-1.6-.4.6-5h5.6v1.6h-4l-.2 2.2a3.2 3.2 0 0 1 1.5-.4c.5 0 .9 0 1.3.2l1 .7.5 1a4.5 4.5 0 0 1 0 2.7c-.1.4-.3.8-.6 1-.3.4-.6.6-1 .8l-1.5.3a4 4 0 0 1-1.3-.2c-.4-.2-.7-.3-1-.6a3 3 0 0 1-.8-.9l-.3-1.2h2c0 .3 0 .5.2.7 0 .2.3.4.5.5l.7.1.6-.1.4-.4.3-.6a3.3 3.3 0 0 0 0-1.5l-.3-.6-.5-.3-.8-.2-.8.2a2 2 0 0 0-.5.4Zm12.9-1.3v1.7c0 .8 0 1.4-.2 2-.2.5-.4 1-.7 1.3l-1 .7-1.5.3a4 4 0 0 1-1-.2 2.8 2.8 0 0 1-1.7-1.3l-.5-1.2-.1-1.6v-1.7c0-.8 0-1.4.2-2 .2-.5.4-1 .7-1.3.3-.3.6-.6 1-.7l1.4-.3c.4 0 .8 0 1.1.2a2.8 2.8 0 0 1 1.7 1.3l.4 1.2.2 1.6Zm-2 2v-3.3l-.2-.6c0-.2-.2-.4-.3-.5a1 1 0 0 0-.4-.2l-.5-.1-.6.1-.4.4-.3.8v4.4c0 .2 0 .4.2.6 0 .2.1.4.3.5l.3.2a1.4 1.4 0 0 0 1.1 0c.2 0 .3-.2.5-.4l.2-.8.1-1.1Zm5.4-6.7v10.5h-2V44.1h2Zm4.6 3.1-3.2 3.7-1.7 1.7-.7-1.4 1.4-1.7 1.9-2.3h2.3Zm-2 7.4-2.2-3.4 1.4-1.2 3 4.6H111Z"
              fill="#8E959B"/>
        <path opacity=".5" d="M102 36.3a6.6 6.6 0 1 0 0-13.3 6.6 6.6 0 0 0 0 13.3Z" fill="#8E959B"/>
    </g>
</svg>
