
<svg width="145" height="85" xmlns="http://www.w3.org/2000/svg" xmlns:xlink="http://www.w3.org/1999/xlink"><defs><path id="a" d="M0 0h145v85H0z"/></defs><g fill="none" fill-rule="evenodd"><mask id="b" fill="#fff"><use xlink:href="#a"/></mask><use fill-opacity="0" fill="#FFF" xlink:href="#a"/><g mask="url(#b)"><g transform="translate(18 28)"><rect fill="#8E959B" y="14" width="23" height="3" rx="1.5"/><rect fill="#898E92" opacity=".3" y="20" width="23" height="3" rx="1.5"/><rect fill="#898E92" opacity=".3" x="2" y="26" width="19" height="3" rx="1.5"/><circle fill="#898E92" opacity=".3" cx="11.5" cy="4.5" r="4.5"/></g></g><g mask="url(#b)"><g transform="translate(61 28)"><rect fill="#8E959B" y="14" width="23" height="3" rx="1.5"/><rect fill="#898E92" opacity=".3" y="20" width="23" height="3" rx="1.5"/><rect fill="#898E92" opacity=".3" x="2" y="26" width="19" height="3" rx="1.5"/><circle fill="#898E92" opacity=".3" cx="11.5" cy="4.5" r="4.5"/></g></g><g mask="url(#b)"><g transform="translate(104 28)"><rect fill="#8E959B" y="14" width="23" height="3" rx="1.5"/><rect fill="#898E92" opacity=".3" y="20" width="23" height="3" rx="1.5"/><rect fill="#898E92" opacity=".3" x="2" y="26" width="19" height="3" rx="1.5"/><circle fill="#898E92" opacity=".3" cx="11.5" cy="4.5" r="4.5"/></g></g></g></svg>
